# xmcd CD database file
#
# Track frame offsets:
#	150
#	15568
#	29165
#	46074
#	63225
#	79618
#	96041
#	112174
#	127860
#	152324
#	166931
#
# Disc length: 2519 seconds
#
# Revision: 2
# Processed by: cddbd v1.5.2PL0 Copyright (c) Steve Scherf et al.
# Submitted via: CDex 1.51
#
DISCID=7a09d50b
DTITLE=Sugarland - Bigger
DYEAR=2018
DGENRE=Country
TTITLE0=Sugarland - Bigger
TTITLE1=Sugarland - On A Roll
TTITLE2=Sugarland - Let Me Remind You
TTITLE3=Sugarland - Mother
TTITLE4=Sugarland - Still The Same
TTITLE5=Sugarland - Lean It On Back
TTITLE6=Sugarland feat. Taylor Swift - Babe
TTITLE7=Sugarland - Bird In A Cage
TTITLE8=Sugarland - Love Me Like I'm Leaving
TTITLE9=Sugarland - Tuesday's Broken
TTITLE10=Sugarland - Not The Only
EXTD=YEAR: 2018
EXTT0=
EXTT1=
EXTT2=
EXTT3=
EXTT4=
EXTT5=
EXTT6=
EXTT7=
EXTT8=
EXTT9=
EXTT10=
PLAYORDER=
